<?xml version="1.0" encoding="UTF-8"?> <svg xmlns="http://www.w3.org/2000/svg" width="932" height="687" viewBox="0 0 932 687" fill="none"> <path fill-rule="evenodd" clip-rule="evenodd" d="M50.1388 1.80183C25.7888 8.19083 7.04876 27.2248 1.40376 51.3038C-1.08224 61.9028 -0.172245 78.9688 3.38976 88.5818C9.95576 106.302 21.1678 118.866 37.4638 126.766C53.2338 134.41 14.4627 133.776 465.964 133.776C917.465 133.776 878.694 134.41 894.464 126.766C911.385 118.562 923.117 104.876 929.598 85.7758C931.074 81.4268 931.46 77.3468 931.445 66.2758C931.428 53.6498 931.165 51.5558 928.766 44.9408C925.068 34.7468 920.561 27.5868 912.94 19.8018C905.455 12.1548 896.94 6.82182 886.06 2.96682L878.464 0.275829L467.964 0.0778308C65.9008 -0.116169 57.3128 -0.0811702 50.1388 1.80183ZM59.9638 276.409C52.8668 277.458 45.9428 279.204 41.4638 281.071C21.8248 289.261 6.53276 307.058 1.35376 327.75C-0.858244 336.587 -0.126242 354.696 2.80876 363.776C9.16676 383.44 26.6598 400.783 46.4638 407.058L53.4638 409.276H465.964H878.464L885.464 407.058C905.268 400.783 922.761 383.44 929.119 363.776C930.549 359.352 931.376 353.595 931.707 345.75C932.291 331.948 930.895 325.236 924.894 312.994C916.812 296.502 901.541 283.958 882.464 278.138C876.695 276.379 860.817 276.303 469.464 276.173C245.614 276.099 61.3388 276.205 59.9638 276.409ZM50.1408 554.801C25.7248 561.207 7.11976 580.057 1.43976 604.142C-0.466242 612.226 -0.435242 627.81 1.50276 635.316C7.40576 658.185 23.9238 675.915 46.4428 683.555L54.4638 686.276H465.964H877.464L885.485 683.555C908.216 675.843 924.61 658.106 930.546 634.802C931.781 629.95 932.082 625.439 931.745 616.802C931.028 598.463 925.468 585.432 912.964 572.789C905.169 564.908 897.221 559.904 886.454 556.1L878.464 553.276L467.964 553.078C65.9268 552.884 57.3128 552.92 50.1408 554.801Z" fill="#747779"></path> </svg> 